<svg xmlns="http://www.w3.org/2000/svg" width="69.919" height="56.047" viewBox="0 0 69.919 56.047">
  <defs>
    <style>
      .cls-1 {
        fill: #692e99;
      }

      .cls-2 {
        fill: #fd9e2c;
      }

      .cls-3 {
        fill: #eb401c;
      }
    </style>
  </defs>
  <g id="kintree-logo" transform="translate(0 0)">
    <g id="Group_8" data-name="Group 8" transform="translate(0 0)">
      <g id="Group_11" data-name="Group 11" transform="translate(0 43.456)">
        <path id="Path_7" data-name="Path 7" class="cls-1" d="M745.684,450.851a1.3,1.3,0,0,1-1.318,1.318,1.391,1.391,0,0,1-1.153-.659l-3.13-3.978-1.695,1.177v2.071a1.362,1.362,0,0,1-1.318,1.389,1.387,1.387,0,0,1-1.366-1.389v-8.672a1.366,1.366,0,0,1,1.366-1.365,1.342,1.342,0,0,1,1.318,1.365v3.871l4.754-4.19a1.432,1.432,0,0,1,.965-.376,1.21,1.21,0,0,1,1.2,1.224,1.3,1.3,0,0,1-.541,1.036l-2.73,2.33,3.2,3.883a1.569,1.569,0,0,1,.447.965" transform="translate(-735.705 -439.695)"/>
        <path id="Path_8" data-name="Path 8" class="cls-1" d="M771.463,452.1v-8.026a1.341,1.341,0,0,1,1.341-1.342,1.326,1.326,0,0,1,1.342,1.342V452.1a1.367,1.367,0,0,1-1.342,1.389,1.382,1.382,0,0,1-1.341-1.389" transform="translate(-759.413 -441.014)"/>
        <path id="Path_9" data-name="Path 9" class="cls-1" d="M798.175,446.1v5.719a1.378,1.378,0,0,1-1.318,1.389,1.4,1.4,0,0,1-1.365-1.389v-5.154a1.8,1.8,0,0,0-1.883-2.025,2.772,2.772,0,0,0-2.425,1.648v5.531a1.382,1.382,0,0,1-1.341,1.389,1.367,1.367,0,0,1-1.342-1.389V443.8a1.326,1.326,0,0,1,1.342-1.341,1.34,1.34,0,0,1,1.341,1.341v.141a4.206,4.206,0,0,1,3.3-1.624,3.557,3.557,0,0,1,3.695,3.789" transform="translate(-770.711 -440.736)"/>
        <path id="Path_10" data-name="Path 10" class="cls-1" d="M831.432,448.507a1.212,1.212,0,0,1-.824,1.083,5.448,5.448,0,0,1-2.565.588c-2.471,0-3.672-1.247-3.672-3.342V441.7h-.942a.8.8,0,0,1-.847-.777.969.969,0,0,1,.424-.753l2.471-2.118a1.133,1.133,0,0,1,.8-.424c.4,0,.777.282.777.941v.847h3.059a1.142,1.142,0,1,1,0,2.283h-3.059v4.684a1.257,1.257,0,0,0,1.365,1.388,3.149,3.149,0,0,0,1.177-.235,2.563,2.563,0,0,1,.73-.188,1.1,1.1,0,0,1,1.106,1.154" transform="translate(-793.307 -437.633)"/>
        <path id="Path_11" data-name="Path 11" class="cls-1" d="M861.535,443.723a1.331,1.331,0,0,1-1.341,1.365,3.311,3.311,0,0,0-3.013,1.624v5.2a1.382,1.382,0,0,1-1.342,1.389,1.366,1.366,0,0,1-1.341-1.389v-8.026a1.326,1.326,0,0,1,1.341-1.342,1.341,1.341,0,0,1,1.342,1.342v.588a3.458,3.458,0,0,1,3.013-2.024,1.256,1.256,0,0,1,1.341,1.271" transform="translate(-814.468 -440.828)"/>
        <path id="Path_12" data-name="Path 12" class="cls-1" d="M885.5,446.62a2.265,2.265,0,0,0-2.424-2.212,2.567,2.567,0,0,0-2.613,2.212Zm2.4.353a1.423,1.423,0,0,1-.306.989c-.259.306-.659.376-1.271.376h-5.931a3.112,3.112,0,0,0,3.366,2.636,5.287,5.287,0,0,0,1.671-.306,3.515,3.515,0,0,1,.847-.164,1.06,1.06,0,0,1,1.059,1.083,1.215,1.215,0,0,1-.777,1.106,7.053,7.053,0,0,1-3.013.635,5.434,5.434,0,0,1-5.79-5.531,5.249,5.249,0,0,1,5.366-5.484,4.58,4.58,0,0,1,4.778,4.66" transform="translate(-829.888 -440.736)"/>
        <path id="Path_13" data-name="Path 13" class="cls-1" d="M920.836,446.62a2.265,2.265,0,0,0-2.424-2.212,2.567,2.567,0,0,0-2.613,2.212Zm2.4.353a1.423,1.423,0,0,1-.306.989c-.259.306-.659.376-1.271.376h-5.931a3.112,3.112,0,0,0,3.366,2.636,5.288,5.288,0,0,0,1.671-.306,3.512,3.512,0,0,1,.847-.164,1.06,1.06,0,0,1,1.059,1.083,1.215,1.215,0,0,1-.777,1.106,7.052,7.052,0,0,1-3.013.635,5.434,5.434,0,0,1-5.79-5.531,5.249,5.249,0,0,1,5.366-5.484,4.58,4.58,0,0,1,4.778,4.66" transform="translate(-853.318 -440.736)"/>
      </g>
      <g id="Group_10" data-name="Group 10" transform="translate(15.164 0)">
        <path id="Path_14" data-name="Path 14" class="cls-2" d="M775.113,335.747a7.662,7.662,0,0,1,4.64-4.544,16.725,16.725,0,0,1,2.707-.743c.619-.115,3.242-.448,3.5-.443.061,1.643.125,3.211.072,4.774-.074,2.162-.594,4.271-.805,6.541a3.585,3.585,0,0,0,3.1.5c3.11-13.344-.873-28.212-11.477-33.16a2.808,2.808,0,0,0-1.282,2.74c.331.25.56.442.806.607a21.209,21.209,0,0,1,8.289,11.2c.47,1.377.062,1.807-1.249,1.989a9.79,9.79,0,0,1-8.867-3.1c-1.27-1.355-2.135-1.327-3.316-.192-.18.173.006-.009-.74.709a14.805,14.805,0,0,0,7.957,5.483,14.9,14.9,0,0,0-6.309,5.747c-.206.327.919,1.1,1.127,1.247.166.119,1.75.9,1.852.641" transform="translate(-770.486 -308.674)"/>
        <path id="Path_15" data-name="Path 15" class="cls-1" d="M792.523,337.118a2.129,2.129,0,1,1-2.129-2.129,2.129,2.129,0,0,1,2.129,2.129" transform="translate(-782.274 -326.121)"/>
        <path id="Path_16" data-name="Path 16" class="cls-3" d="M847.066,335.747a7.661,7.661,0,0,0-4.64-4.544,16.726,16.726,0,0,0-2.707-.743c-.619-.115-3.242-.448-3.5-.443-.061,1.643-.125,3.211-.072,4.774.074,2.162.594,4.271.805,6.541a3.585,3.585,0,0,1-3.1.5c-3.11-13.344.873-28.212,11.477-33.16a2.809,2.809,0,0,1,1.282,2.74c-.331.25-.56.442-.807.607a21.209,21.209,0,0,0-8.289,11.2c-.47,1.377-.062,1.807,1.249,1.989a9.79,9.79,0,0,0,8.867-3.1c1.27-1.355,2.135-1.327,3.316-.192.18.173-.006-.009.74.709a14.806,14.806,0,0,1-7.957,5.483,14.9,14.9,0,0,1,6.309,5.747c.206.327-.919,1.1-1.127,1.247-.166.119-1.75.9-1.852.641" transform="translate(-811.822 -308.674)"/>
        <path id="Path_17" data-name="Path 17" class="cls-1" d="M858.392,337.118a2.129,2.129,0,1,0,2.129-2.129,2.129,2.129,0,0,0-2.129,2.129" transform="translate(-828.77 -326.121)"/>
      </g>
    </g>
  </g>
</svg>
